<svg width="37" height="37" viewBox="0 0 37 37" fill="none" xmlns="http://www.w3.org/2000/svg">
<path fill-rule="evenodd" clip-rule="evenodd" d="M18.5 6.85409C18.5 10.3183 15.6934 13.1249 12.2292 13.1249C8.76502 13.1249 5.95837 10.3183 5.95837 6.85409C5.95837 3.3899 8.76502 0.583252 12.2292 0.583252C15.6934 0.583252 18.5 3.3899 18.5 6.85409ZM0.583374 19.7541C0.583374 15.9414 8.34219 14.0208 12.2292 14.0208C14.6444 14.0208 18.5538 14.7625 21.1696 16.2379C19.5538 17.0828 18.1586 18.2948 17.0963 19.7768C16.034 21.2587 15.3341 22.9692 15.0529 24.7708H0.583374V19.7541ZM23.875 17.6041C23.875 17.3665 23.9694 17.1386 24.1374 16.9706C24.3054 16.8026 24.5333 16.7083 24.7709 16.7083H28.3542C28.5918 16.7083 28.8197 16.8026 28.9877 16.9706C29.1557 17.1386 29.25 17.3665 29.25 17.6041C29.25 17.8417 29.1557 18.0695 28.9877 18.2375C28.8197 18.4055 28.5918 18.4999 28.3542 18.4999H27.4584V20.3543C28.496 20.5032 29.4795 20.9111 30.3179 21.5404L31.5667 20.2916L31.3042 20.0291C31.141 19.8602 31.0507 19.6339 31.0527 19.399C31.0548 19.1641 31.149 18.9394 31.3151 18.7733C31.4812 18.6072 31.7059 18.513 31.9408 18.511C32.1756 18.5089 32.4019 18.5992 32.5709 18.7624L34.3626 20.5541C34.5257 20.723 34.616 20.9493 34.614 21.1842C34.612 21.4191 34.5177 21.6438 34.3517 21.8099C34.1856 21.976 33.9609 22.0702 33.726 22.0722C33.4911 22.0743 33.2648 21.984 33.0959 21.8208L32.8334 21.5583L31.5846 22.8071C32.2139 23.6455 32.6218 24.6289 32.7707 25.6666H34.625V24.7708C34.625 24.5332 34.7194 24.3053 34.8874 24.1373C35.0554 23.9693 35.2833 23.8749 35.5209 23.8749C35.7585 23.8749 35.9863 23.9693 36.1543 24.1373C36.3223 24.3053 36.4167 24.5332 36.4167 24.7708V28.3541C36.4167 28.5917 36.3223 28.8195 36.1543 28.9875C35.9863 29.1555 35.7585 29.2499 35.5209 29.2499C35.2833 29.2499 35.0554 29.1555 34.8874 28.9875C34.7194 28.8195 34.625 28.5917 34.625 28.3541V27.4583H32.7707C32.6529 28.2801 32.3721 29.0702 31.9447 29.782L33.7292 31.5665L33.9917 31.3041C34.1606 31.1409 34.3869 31.0506 34.6218 31.0526C34.8567 31.0547 35.0814 31.1489 35.2475 31.315C35.4136 31.4811 35.5078 31.7058 35.5098 31.9406C35.5119 32.1755 35.4216 32.4018 35.2584 32.5708L33.4667 34.3624C33.2978 34.5256 33.0715 34.6159 32.8366 34.6139C32.6017 34.6118 32.377 34.5176 32.2109 34.3515C32.0448 34.1854 31.9506 33.9608 31.9486 33.7259C31.9465 33.491 32.0368 33.2647 32.2 33.0957L32.4625 32.8333L30.807 31.1786C29.8774 32.0355 28.7098 32.5903 27.4584 32.7696V34.6249H28.3542C28.5918 34.6249 28.8197 34.7193 28.9877 34.8873C29.1557 35.0553 29.25 35.2832 29.25 35.5208C29.25 35.7583 29.1557 35.9862 28.9877 36.1542C28.8197 36.3222 28.5918 36.4166 28.3542 36.4166H24.7709C24.5333 36.4166 24.3054 36.3222 24.1374 36.1542C23.9694 35.9862 23.875 35.7583 23.875 35.5208C23.875 35.2832 23.9694 35.0553 24.1374 34.8873C24.3054 34.7193 24.5333 34.6249 24.7709 34.6249H25.6667V32.7705C24.629 32.6217 23.6456 32.2138 22.8072 31.5845L21.5584 32.8333L21.8209 33.0957C21.9841 33.2647 22.0744 33.491 22.0723 33.7259C22.0703 33.9608 21.9761 34.1854 21.81 34.3515C21.6439 34.5176 21.4192 34.6118 21.1843 34.6139C20.9494 34.6159 20.7231 34.5256 20.5542 34.3624L18.7625 32.5708C18.5993 32.4018 18.509 32.1755 18.5111 31.9406C18.5131 31.7058 18.6073 31.4811 18.7734 31.315C18.9395 31.1489 19.1642 31.0547 19.3991 31.0526C19.634 31.0506 19.8603 31.1409 20.0292 31.3041L20.2917 31.5665L21.5405 30.3178C20.9112 29.4794 20.5033 28.4959 20.3544 27.4583H18.5V28.3541C18.5 28.5917 18.4057 28.8195 18.2377 28.9875C18.0697 29.1555 17.8418 29.2499 17.6042 29.2499C17.3666 29.2499 17.1388 29.1555 16.9708 28.9875C16.8028 28.8195 16.7084 28.5917 16.7084 28.3541V24.7708C16.7084 24.5332 16.8028 24.3053 16.9708 24.1373C17.1388 23.9693 17.3666 23.8749 17.6042 23.8749C17.8418 23.8749 18.0697 23.9693 18.2377 24.1373C18.4057 24.3053 18.5 24.5332 18.5 24.7708V25.6666H20.3544C20.5033 24.6289 20.9112 23.6455 21.5405 22.8071L20.2917 21.5583L20.0292 21.8208C19.8603 21.984 19.634 22.0743 19.3991 22.0722C19.1642 22.0702 18.9395 21.976 18.7734 21.8099C18.6073 21.6438 18.5131 21.4191 18.5111 21.1842C18.509 20.9493 18.5993 20.723 18.7625 20.5541L20.5542 18.7624C20.7231 18.5992 20.9494 18.5089 21.1843 18.511C21.4192 18.513 21.6439 18.6072 21.81 18.7733C21.9761 18.9394 22.0703 19.1641 22.0723 19.399C22.0744 19.6339 21.9841 19.8602 21.8209 20.0291L21.5584 20.2916L22.8072 21.5404C23.6456 20.9111 24.629 20.5032 25.6667 20.3543V18.4999H24.7709C24.5333 18.4999 24.3054 18.4055 24.1374 18.2375C23.9694 18.0695 23.875 17.8417 23.875 17.6041Z" fill="#57BD85"/>
</svg>
