<svg width="26" height="26" viewBox="0 0 26 26" fill="none" xmlns="http://www.w3.org/2000/svg">
<path fill-rule="evenodd" clip-rule="evenodd" d="M13 4.875C13 7.29187 11.0419 9.25 8.625 9.25C6.20813 9.25 4.25 7.29187 4.25 4.875C4.25 2.45812 6.20813 0.5 8.625 0.5C11.0419 0.5 13 2.45812 13 4.875ZM0.5 13.875C0.5 11.215 5.91313 9.875 8.625 9.875C10.31 9.875 13.0375 10.3925 14.8625 11.4219C13.7352 12.0113 12.7618 12.8569 12.0206 13.8908C11.2795 14.9247 10.7912 16.1181 10.595 17.375H0.5V13.875ZM16.75 12.375C16.75 12.2092 16.8158 12.0503 16.9331 11.9331C17.0503 11.8158 17.2092 11.75 17.375 11.75H19.875C20.0408 11.75 20.1997 11.8158 20.3169 11.9331C20.4342 12.0503 20.5 12.2092 20.5 12.375C20.5 12.5408 20.4342 12.6997 20.3169 12.8169C20.1997 12.9342 20.0408 13 19.875 13H19.25V14.2937C19.974 14.3976 20.6601 14.6822 21.245 15.1212L22.1162 14.25L21.9331 14.0669C21.8193 13.949 21.7563 13.7911 21.7577 13.6272C21.7591 13.4634 21.8249 13.3066 21.9407 13.1907C22.0566 13.0749 22.2134 13.0091 22.3772 13.0077C22.5411 13.0063 22.699 13.0693 22.8169 13.1831L24.0669 14.4331C24.1807 14.551 24.2437 14.7089 24.2423 14.8728C24.2409 15.0366 24.1751 15.1934 24.0593 15.3093C23.9434 15.4251 23.7866 15.4909 23.6228 15.4923C23.4589 15.4937 23.301 15.4307 23.1831 15.3169L23 15.1337L22.1287 16.005C22.5678 16.5899 22.8524 17.276 22.9562 18H24.25V17.375C24.25 17.2092 24.3158 17.0503 24.4331 16.9331C24.5503 16.8158 24.7092 16.75 24.875 16.75C25.0408 16.75 25.1997 16.8158 25.3169 16.9331C25.4342 17.0503 25.5 17.2092 25.5 17.375V19.875C25.5 20.0408 25.4342 20.1997 25.3169 20.3169C25.1997 20.4342 25.0408 20.5 24.875 20.5C24.7092 20.5 24.5503 20.4342 24.4331 20.3169C24.3158 20.1997 24.25 20.0408 24.25 19.875V19.25H22.9562C22.8741 19.8234 22.6782 20.3746 22.38 20.8713L23.625 22.1162L23.8081 21.9331C23.926 21.8193 24.0839 21.7563 24.2478 21.7577C24.4116 21.7591 24.5684 21.8249 24.6843 21.9407C24.8001 22.0566 24.8659 22.2134 24.8673 22.3772C24.8687 22.5411 24.8057 22.699 24.6919 22.8169L23.4419 24.0669C23.324 24.1807 23.1661 24.2437 23.0022 24.2423C22.8384 24.2409 22.6816 24.1751 22.5657 24.0593C22.4499 23.9434 22.3841 23.7866 22.3827 23.6228C22.3813 23.4589 22.4443 23.301 22.5581 23.1831L22.7412 23L21.5863 21.8456C20.9377 22.4435 20.1231 22.8305 19.25 22.9556V24.25H19.875C20.0408 24.25 20.1997 24.3158 20.3169 24.4331C20.4342 24.5503 20.5 24.7092 20.5 24.875C20.5 25.0408 20.4342 25.1997 20.3169 25.3169C20.1997 25.4342 20.0408 25.5 19.875 25.5H17.375C17.2092 25.5 17.0503 25.4342 16.9331 25.3169C16.8158 25.1997 16.75 25.0408 16.75 24.875C16.75 24.7092 16.8158 24.5503 16.9331 24.4331C17.0503 24.3158 17.2092 24.25 17.375 24.25H18V22.9562C17.276 22.8524 16.5899 22.5678 16.005 22.1287L15.1337 23L15.3169 23.1831C15.4307 23.301 15.4937 23.4589 15.4923 23.6228C15.4909 23.7866 15.4251 23.9434 15.3093 24.0593C15.1934 24.1751 15.0366 24.2409 14.8728 24.2423C14.7089 24.2437 14.551 24.1807 14.4331 24.0669L13.1831 22.8169C13.0693 22.699 13.0063 22.5411 13.0077 22.3772C13.0091 22.2134 13.0749 22.0566 13.1907 21.9407C13.3066 21.8249 13.4634 21.7591 13.6272 21.7577C13.7911 21.7563 13.949 21.8193 14.0669 21.9331L14.25 22.1162L15.1212 21.245C14.6822 20.6601 14.3976 19.974 14.2937 19.25H13V19.875C13 20.0408 12.9342 20.1997 12.8169 20.3169C12.6997 20.4342 12.5408 20.5 12.375 20.5C12.2092 20.5 12.0503 20.4342 11.9331 20.3169C11.8158 20.1997 11.75 20.0408 11.75 19.875V17.375C11.75 17.2092 11.8158 17.0503 11.9331 16.9331C12.0503 16.8158 12.2092 16.75 12.375 16.75C12.5408 16.75 12.6997 16.8158 12.8169 16.9331C12.9342 17.0503 13 17.2092 13 17.375V18H14.2937C14.3976 17.276 14.6822 16.5899 15.1212 16.005L14.25 15.1337L14.0669 15.3169C13.949 15.4307 13.7911 15.4937 13.6272 15.4923C13.4634 15.4909 13.3066 15.4251 13.1907 15.3093C13.0749 15.1934 13.0091 15.0366 13.0077 14.8728C13.0063 14.7089 13.0693 14.551 13.1831 14.4331L14.4331 13.1831C14.551 13.0693 14.7089 13.0063 14.8728 13.0077C15.0366 13.0091 15.1934 13.0749 15.3093 13.1907C15.4251 13.3066 15.4909 13.4634 15.4923 13.6272C15.4937 13.7911 15.4307 13.949 15.3169 14.0669L15.1337 14.25L16.005 15.1212C16.5899 14.6822 17.276 14.3976 18 14.2937V13H17.375C17.2092 13 17.0503 12.9342 16.9331 12.8169C16.8158 12.6997 16.75 12.5408 16.75 12.375Z" fill="#C2C9D1"/>
</svg>
